<svg id="visual" viewBox="0 0 900 600" width="900" height="600" xmlns="http://www.w3.org/2000/svg" xmlns:xlink="http://www.w3.org/1999/xlink" version="1.1"><path d="M0 39L16.7 44C33.3 49 66.7 59 100 59.5C133.3 60 166.7 51 200 54.5C233.3 58 266.7 74 300 86.8C333.3 99.7 366.7 109.3 400 109.8C433.3 110.3 466.7 101.7 500 97.2C533.3 92.7 566.7 92.3 600 96.8C633.3 101.3 666.7 110.7 700 118.8C733.3 127 766.7 134 800 132.8C833.3 131.7 866.7 122.3 883.3 117.7L900 113L900 0L883.3 0C866.7 0 833.3 0 800 0C766.7 0 733.3 0 700 0C666.7 0 633.3 0 600 0C566.7 0 533.3 0 500 0C466.7 0 433.3 0 400 0C366.7 0 333.3 0 300 0C266.7 0 233.3 0 200 0C166.7 0 133.3 0 100 0C66.7 0 33.3 0 16.7 0L0 0Z" fill="#010417" stroke-linecap="round" stroke-linejoin="miter"></path></svg>